<svg width="20" height="20" viewBox="0 0 20 20" fill="none" xmlns="http://www.w3.org/2000/svg">
<path d="M10 20C4.4861 20 0 15.5139 0 10C0 4.4861 4.4861 0 10 0C15.5139 0 20 4.4861 20 10C20 15.5139 15.5139 20 10 20ZM10 1.25001C5.17517 1.25001 1.25001 5.17517 1.25001 10C1.25001 14.8248 5.17517 18.75 10 18.75C14.8248 18.75 18.75 14.8248 18.75 10C18.75 5.17517 14.8248 1.25001 10 1.25001Z" fill="white"/>
<path d="M9.99999 15C7.24304 15 4.99997 12.757 4.99997 10C4.99997 7.24303 7.243 5 9.99999 5C11.3556 5 12.6239 5.53346 13.5724 6.50207L12.6788 7.37608C11.9678 6.64974 11.0169 6.24996 9.99999 6.24996C7.93211 6.24996 6.24998 7.93209 6.24998 9.99998C6.24998 12.0679 7.93211 13.75 9.99999 13.75C11.0162 13.75 11.9672 13.3502 12.6788 12.6239L13.5712 13.4991C12.6233 14.4672 11.355 15 9.99999 15Z" fill="white"/>
</svg>
