<svg width="42" height="42" viewBox="0 0 42 42" fill="none" xmlns="http://www.w3.org/2000/svg">
<circle cx="21" cy="21" r="20.5" stroke="white"/>
<g clip-path="url(#clip0)">
<path d="M22.3945 31.459H19.0316C18.4698 31.459 18.0129 31.002 18.0129 30.4403V22.855H16.0509C15.4892 22.855 15.0322 22.3979 15.0322 21.8363V18.586C15.0322 18.0243 15.4892 17.5673 16.0509 17.5673H18.0129V15.9397C18.0129 14.3258 18.5197 12.9528 19.4783 11.9692C20.4412 10.9811 21.7868 10.459 23.3698 10.459L25.9345 10.4632C26.4953 10.4641 26.9514 10.9211 26.9514 11.4818V14.4997C26.9514 15.0614 26.4947 15.5183 25.9331 15.5183L24.2063 15.519C23.6796 15.519 23.5455 15.6246 23.5169 15.6569C23.4696 15.7106 23.4134 15.8623 23.4134 16.2813V17.5672H25.8033C25.9832 17.5672 26.1576 17.6116 26.3074 17.6952C26.6305 17.8758 26.8314 18.2172 26.8314 18.5862L26.8301 21.8365C26.8301 22.3979 26.3732 22.8548 25.8115 22.8548H23.4134V30.4403C23.4134 31.002 22.9563 31.459 22.3945 31.459ZM19.244 30.2279H22.1821V22.3038C22.1821 21.9288 22.4873 21.6237 22.8622 21.6237H25.599L25.6002 18.7985H22.862C22.4871 18.7985 22.1821 18.4934 22.1821 18.1183V16.2813C22.1821 15.8003 22.231 15.2533 22.594 14.8422C23.0327 14.3452 23.724 14.2879 24.2059 14.2879L25.7203 14.2872V11.6939L23.3688 11.6901C20.8249 11.6901 19.244 13.3185 19.244 15.9397V18.1183C19.244 18.4932 18.939 18.7985 18.5641 18.7985H16.2633V21.6237H18.5641C18.939 21.6237 19.244 21.9288 19.244 22.3038V30.2279ZM25.9321 11.6943H25.9323H25.9321Z" fill="white"/>
</g>
<defs>
<clipPath id="clip0">
<rect width="20.959" height="21" fill="white" transform="translate(10.5 10.5)"/>
</clipPath>
</defs>
</svg>
