<svg width="150" height="150" viewBox="0 0 150 150" fill="none" xmlns="http://www.w3.org/2000/svg">
<circle cx="75" cy="75" r="72.5" stroke="white" stroke-width="5"/>
<g clip-path="url(#clip0)">
<path d="M79.9805 112.354H67.9699C65.9637 112.354 64.3318 110.722 64.3318 108.715V81.625H57.3246C55.3185 81.625 53.6865 79.9925 53.6865 77.9869V66.3786C53.6865 64.3724 55.3185 62.7405 57.3246 62.7405H64.3318V56.9275C64.3318 51.1637 66.1417 46.2599 69.5652 42.7471C73.0042 39.2183 77.8101 37.3535 83.4635 37.3535L92.6233 37.3684C94.6261 37.3718 96.2551 39.0038 96.2551 41.0065V51.7845C96.2551 53.7907 94.6238 55.4226 92.6182 55.4226L86.451 55.4249C84.5701 55.4249 84.0912 55.802 83.9888 55.9176C83.82 56.1092 83.6191 56.6511 83.6191 58.1474V62.7399H92.1547C92.7973 62.7399 93.4198 62.8984 93.9549 63.1971C95.109 63.842 95.8265 65.0614 95.8265 66.3792L95.822 77.9875C95.822 79.9925 94.19 81.6244 92.1839 81.6244H83.6191V108.715C83.6191 110.722 81.9866 112.354 79.9805 112.354ZM68.7286 107.957H79.2217V79.6566C79.2217 78.3171 80.3118 77.2276 81.6507 77.2276H91.4251L91.4291 67.1373H81.6502C80.3112 67.1373 79.2217 66.0479 79.2217 64.7083V58.1474C79.2217 56.4297 79.3963 54.4762 80.6929 53.0079C82.2596 51.2329 84.7286 51.0281 86.4498 51.0281L91.8583 51.0258V41.7641L83.4601 41.7503C74.3746 41.7503 68.7286 47.5662 68.7286 56.9275V64.7083C68.7286 66.0473 67.6392 67.1373 66.3002 67.1373H58.0833V77.2276H66.3002C67.6392 77.2276 68.7286 78.3171 68.7286 79.6566V107.957ZM92.6148 41.7652H92.6153H92.6148Z" fill="white"/>
</g>
<defs>
<clipPath id="clip0">
<rect width="74.8535" height="75" fill="white" transform="translate(37.5 37.5)"/>
</clipPath>
</defs>
</svg>
