<svg width="42" height="42" viewBox="0 0 42 42" fill="none" xmlns="http://www.w3.org/2000/svg">
<circle cx="21" cy="21" r="20.5" stroke="white"/>
<g clip-path="url(#clip0)">
<path d="M25.8155 10.0801H16.1845C13.05 10.0801 10.5 12.6301 10.5 15.7646V25.3957C10.5 28.53 13.05 31.08 16.1845 31.08H25.8156C28.9499 31.08 31.5 28.53 31.5 25.3957V15.7646C31.5 12.6301 28.9499 10.0801 25.8155 10.0801V10.0801ZM30.2689 25.3957C30.2689 27.8512 28.2711 29.8489 25.8155 29.8489H16.1845C13.7289 29.8489 11.7311 27.8512 11.7311 25.3957V15.7646C11.7311 13.3089 13.7289 11.3112 16.1845 11.3112H25.8156C28.2711 11.3112 30.2689 13.3089 30.2689 15.7646V25.3957Z" fill="white"/>
<path d="M21 14.8381C17.8337 14.8381 15.2579 17.4139 15.2579 20.5802C15.2579 23.7464 17.8337 26.3222 21 26.3222C24.1662 26.3222 26.742 23.7464 26.742 20.5802C26.742 17.4139 24.1662 14.8381 21 14.8381ZM21 25.0911C18.5127 25.0911 16.489 23.0675 16.489 20.5802C16.489 18.0929 18.5127 16.0692 21 16.0692C23.4873 16.0692 25.5109 18.0929 25.5109 20.5802C25.5109 23.0675 23.4873 25.0911 21 25.0911Z" fill="white"/>
<path d="M26.8793 12.7988C25.9436 12.7988 25.1826 13.56 25.1826 14.4955C25.1826 15.4312 25.9436 16.1924 26.8793 16.1924C27.815 16.1924 28.5762 15.4312 28.5762 14.4955C28.5762 13.5599 27.815 12.7988 26.8793 12.7988ZM26.8793 14.9611C26.6226 14.9611 26.4137 14.7522 26.4137 14.4955C26.4137 14.2387 26.6226 14.0299 26.8793 14.0299C27.1361 14.0299 27.3451 14.2387 27.3451 14.4955C27.3451 14.7522 27.1361 14.9611 26.8793 14.9611Z" fill="white"/>
</g>
<defs>
<clipPath id="clip0">
<rect width="21" height="21" fill="white" transform="translate(10.5 10.0801)"/>
</clipPath>
</defs>
</svg>
