<svg width="42" height="42" viewBox="0 0 42 42" fill="none" xmlns="http://www.w3.org/2000/svg">
<circle cx="21" cy="21" r="20.5" stroke="white"/>
<g clip-path="url(#clip0)">
<path d="M30.9657 12.586C30.7092 12.2723 30.325 12.0996 29.8838 12.0996C29.6439 12.0996 29.3898 12.1501 29.1287 12.2499L11.3525 19.0356C10.4092 19.3956 10.2821 19.9358 10.2903 20.2258C10.2985 20.5158 10.456 21.0481 11.4182 21.3542C11.424 21.356 11.4298 21.3578 11.4355 21.3594L15.1228 22.4146L17.1168 28.1167C17.3887 28.8941 17.999 29.377 18.7097 29.377C19.1578 29.377 19.5986 29.1892 19.9844 28.8341L22.2651 26.7342L25.5731 29.3978C25.5734 29.3981 25.5739 29.3983 25.5742 29.3986L25.6056 29.4239C25.6085 29.4261 25.6116 29.4286 25.6144 29.4308C25.9821 29.716 26.3835 29.8666 26.7755 29.8667H26.7757C27.5417 29.8667 28.1516 29.2997 28.3293 28.4224L31.2419 14.0406C31.3589 13.4634 31.2608 12.9468 30.9657 12.586ZM16.3563 22.2141L23.4701 18.5799L19.0406 23.2866C18.968 23.3637 18.9166 23.4581 18.8912 23.5608L18.0371 27.0205L16.3563 22.2141ZM19.1508 27.9289C19.1213 27.956 19.0917 27.9802 19.062 28.0025L19.8545 24.793L21.2959 25.9538L19.1508 27.9289ZM30.036 13.7963L27.1234 28.1782C27.0953 28.3158 27.0058 28.6361 26.7755 28.6361C26.6618 28.6361 26.5189 28.5741 26.3726 28.4615L22.6241 25.4433C22.6237 25.4428 22.623 25.4423 22.6224 25.442L20.392 23.646L26.7976 16.8395C27.0027 16.6216 27.0213 16.2878 26.8417 16.0485C26.6619 15.8091 26.3362 15.7338 26.0698 15.87L15.5342 21.2523L11.7968 20.1831L29.5675 13.3995C29.7176 13.3421 29.8224 13.3301 29.8838 13.3301C29.9214 13.3301 29.9884 13.3346 30.0132 13.3652C30.0459 13.4051 30.0876 13.5411 30.036 13.7963Z" fill="white"/>
</g>
<defs>
<clipPath id="clip0">
<rect width="21" height="21" fill="white" transform="translate(10.29 10.5)"/>
</clipPath>
</defs>
</svg>
