<svg width="42" height="42" viewBox="0 0 42 42" fill="none" xmlns="http://www.w3.org/2000/svg">
<circle cx="21" cy="21" r="20.5" stroke="white"/>
<g clip-path="url(#clip0)">
<path d="M24.2324 19.6364L19.593 17.0979C19.3262 16.952 19.0109 16.9574 18.7494 17.1124C18.4878 17.2674 18.3318 17.5414 18.3318 17.8455V22.8789C18.3318 23.1815 18.4868 23.455 18.7467 23.6103C18.8824 23.6914 19.0329 23.732 19.1836 23.732C19.3217 23.732 19.4602 23.6979 19.5875 23.6294L24.2271 21.1346C24.5025 20.9864 24.6744 20.7001 24.6757 20.3872C24.6768 20.0743 24.507 19.7867 24.2324 19.6364ZM19.5624 22.2457V18.4838L23.0298 20.3811L19.5624 22.2457Z" fill="white"/>
<path d="M31.3456 16.3771L31.3446 16.3675C31.3268 16.1985 31.1498 14.695 30.4189 13.9303C29.574 13.0308 28.6163 12.9215 28.1556 12.8691C28.1175 12.8648 28.0826 12.8608 28.0513 12.8566L28.0146 12.8528C25.2384 12.6509 21.0457 12.6234 21.0037 12.6232L21 12.623L20.9963 12.6232C20.9543 12.6234 16.7616 12.6509 13.9604 12.8528L13.9234 12.8566C13.8936 12.8606 13.8607 12.8643 13.825 12.8685C13.3697 12.9211 12.4221 13.0305 11.5749 13.9625C10.8788 14.719 10.6775 16.1903 10.6569 16.3556L10.6544 16.3771C10.6482 16.4474 10.5 18.1219 10.5 19.8029V21.3743C10.5 23.0553 10.6482 24.7297 10.6544 24.8002L10.6556 24.8108C10.6734 24.9771 10.8502 26.453 11.5778 27.218C12.3721 28.0874 13.3765 28.2024 13.9168 28.2643C14.0022 28.274 14.0757 28.2824 14.1259 28.2912L14.1744 28.2979C15.7774 28.4504 20.8033 28.5256 21.0163 28.5286L21.0228 28.5288L21.0292 28.5286C21.0711 28.5285 25.2637 28.5009 28.0399 28.299L28.0766 28.2952C28.1117 28.2905 28.1511 28.2864 28.1944 28.2819C28.6472 28.2338 29.5896 28.134 30.4251 27.2147C31.1212 26.458 31.3226 24.9867 31.3431 24.8215L31.3456 24.8C31.3518 24.7295 31.5002 23.0553 31.5002 21.3743V19.8029C31.5 18.1219 31.3518 16.4476 31.3456 16.3771ZM30.2694 21.3743C30.2694 22.9301 30.1335 24.5325 30.1207 24.6796C30.0685 25.0847 29.8562 26.0156 29.517 26.3843C28.994 26.9596 28.4568 27.0166 28.0646 27.0581C28.0172 27.0631 27.9733 27.0679 27.9336 27.0729C25.2483 27.2671 21.2139 27.2969 21.028 27.298C20.8196 27.2949 15.8673 27.2192 14.3132 27.0748C14.2335 27.0618 14.1475 27.0519 14.0568 27.0416C13.5968 26.9889 12.9672 26.9168 12.483 26.3843L12.4716 26.3721C12.1384 26.0249 11.9322 25.1544 11.8798 24.6844C11.87 24.5732 11.7306 22.9519 11.7306 21.3743V19.8029C11.7306 18.2488 11.8662 16.6482 11.8793 16.4981C11.9416 16.0208 12.1579 15.1463 12.483 14.7929C13.022 14.2001 13.5903 14.1344 13.9661 14.091C14.002 14.0868 14.0355 14.0829 14.0664 14.0789C16.7908 13.8838 20.8542 13.8548 21 13.8537C21.1458 13.8546 25.2078 13.8838 27.9079 14.0789C27.9411 14.0831 27.9773 14.0873 28.0162 14.0918C28.4028 14.1358 28.9872 14.2025 29.5234 14.7744L29.5284 14.7797C29.8616 15.1269 30.0678 16.0126 30.1202 16.4921C30.1295 16.5971 30.2694 18.2218 30.2694 19.8029V21.3743Z" fill="white"/>
</g>
<defs>
<clipPath id="clip0">
<rect width="21.0001" height="21" fill="white" transform="translate(10.5 10.0801)"/>
</clipPath>
</defs>
</svg>
