<svg width="150" height="150" viewBox="0 0 150 150" fill="none" xmlns="http://www.w3.org/2000/svg">
<circle cx="75" cy="75" r="72.5" stroke="white" stroke-width="5"/>
<g clip-path="url(#clip0)">
<path d="M86.5442 70.1297L69.9749 61.0637C69.0222 60.5424 67.8961 60.5619 66.9622 61.1152C66.0278 61.6691 65.4705 62.6476 65.4705 63.7336V81.71C65.4705 82.7909 66.0244 83.7676 66.9525 84.3221C67.4372 84.6116 67.9745 84.757 68.5129 84.757C69.0062 84.757 69.5005 84.6351 69.9554 84.3902L86.5253 75.4804C87.5089 74.9511 88.1229 73.9286 88.1275 72.8111C88.1315 71.6935 87.525 70.6664 86.5442 70.1297ZM69.8656 79.4486V66.0133L82.2492 72.7893L69.8656 79.4486Z" fill="white"/>
<path d="M111.948 58.4894L111.945 58.455C111.881 57.8513 111.249 52.4818 108.639 49.7506C105.622 46.5383 102.201 46.148 100.556 45.9609C100.42 45.9455 100.295 45.9312 100.183 45.9163L100.052 45.9026C90.1371 45.1816 75.1631 45.0832 75.0132 45.0826L75 45.082L74.9868 45.0826C74.8369 45.0832 59.8629 45.1816 49.8585 45.9026L49.7263 45.9163C49.6199 45.9306 49.5026 45.9438 49.375 45.9586C47.7488 46.1463 44.3647 46.5371 41.3389 49.8657C38.8527 52.5676 38.134 57.8222 38.0602 58.4127L38.0516 58.4894C38.0293 58.7406 37.5 64.7207 37.5 70.7242V76.3364C37.5 82.34 38.0293 88.3201 38.0516 88.5719L38.0556 88.6096C38.1191 89.2036 38.7508 94.4747 41.3492 97.207C44.1862 100.312 47.7734 100.723 49.7028 100.944C50.0078 100.978 50.2705 101.008 50.4496 101.04L50.6229 101.064C56.3478 101.608 74.2973 101.877 75.0584 101.888L75.0813 101.888L75.1041 101.888C75.2541 101.887 90.2275 101.789 100.143 101.068L100.274 101.054C100.399 101.037 100.54 101.022 100.694 101.006C102.311 100.835 105.677 100.478 108.661 97.195C111.147 94.4925 111.867 89.2379 111.94 88.648L111.948 88.5713C111.971 88.3195 112.501 82.34 112.501 76.3364V70.7242C112.5 64.7207 111.971 58.7411 111.948 58.4894ZM108.105 76.3364C108.105 81.8931 107.62 87.6157 107.574 88.141C107.387 89.5881 106.629 92.9126 105.418 94.2293C103.55 96.284 101.632 96.4877 100.231 96.6359C100.061 96.6537 99.9046 96.6709 99.7627 96.6886C90.1726 97.3821 75.7639 97.4885 75.1001 97.4925C74.3557 97.4817 56.6689 97.211 51.1185 96.6955C50.8341 96.6491 50.5268 96.6136 50.2029 96.577C48.5601 96.3888 46.3114 96.1313 44.5822 94.2293L44.5415 94.1858C43.3514 92.9458 42.6149 89.837 42.4278 88.1582C42.3929 87.7611 41.8951 81.9709 41.8951 76.3364V70.7242C41.8951 65.1739 42.3792 59.4575 42.4261 58.9214C42.6487 57.2168 43.4212 54.0937 44.5822 52.8314C46.5071 50.7142 48.5367 50.4796 49.8791 50.3246C50.0072 50.3097 50.1268 50.296 50.2373 50.2817C59.967 49.5847 74.4793 49.4811 75 49.4771C75.5207 49.4806 90.0278 49.5847 99.6712 50.2817C99.7896 50.2965 99.9189 50.3114 100.058 50.3274C101.439 50.4848 103.526 50.7228 105.441 52.7656L105.458 52.7845C106.649 54.0244 107.385 57.1876 107.572 58.9002C107.605 59.275 108.105 65.0777 108.105 70.7242V76.3364Z" fill="white"/>
</g>
<defs>
<clipPath id="clip0">
<rect width="75.0003" height="75" fill="white" transform="translate(37.5 36)"/>
</clipPath>
</defs>
</svg>
