<svg width="18" height="20" viewBox="0 0 18 20" fill="none" xmlns="http://www.w3.org/2000/svg">
<g clip-path="url(#clip0)">
<path d="M15.7913 1.5625H15.0038V0H13.6913V1.5625H5.02876V0H3.71626V1.5625H2.92876C1.84319 1.5625 0.960007 2.61391 0.960007 3.90625V17.6562C0.960007 18.9486 1.84319 20 2.92876 20H15.7913C16.8768 20 17.76 18.9486 17.76 17.6562V3.90625C17.76 2.61391 16.8768 1.5625 15.7913 1.5625ZM16.4475 17.6562C16.4475 18.087 16.1531 18.4375 15.7913 18.4375H2.92876C2.5669 18.4375 2.27251 18.087 2.27251 17.6562V7.34375H16.4475V17.6562ZM16.4475 5.78125H2.27251V3.90625C2.27251 3.47547 2.5669 3.125 2.92876 3.125H3.71626V4.6875H5.02876V3.125H13.6913V4.6875H15.0038V3.125H15.7913C16.1531 3.125 16.4475 3.47547 16.4475 3.90625V5.78125Z" fill="#976947"/>
<path d="M4.76626 8.98438H3.45376V10.5469H4.76626V8.98438Z" fill="#976947"/>
<path d="M7.39126 8.98438H6.07876V10.5469H7.39126V8.98438Z" fill="#976947"/>
<path d="M10.0163 8.98438H8.70376V10.5469H10.0163V8.98438Z" fill="#976947"/>
<path d="M12.6413 8.98438H11.3288V10.5469H12.6413V8.98438Z" fill="#976947"/>
<path d="M15.2663 8.98438H13.9538V10.5469H15.2663V8.98438Z" fill="#976947"/>
<path d="M4.76626 12.1094H3.45376V13.6719H4.76626V12.1094Z" fill="#976947"/>
<path d="M7.39126 12.1094H6.07876V13.6719H7.39126V12.1094Z" fill="#976947"/>
<path d="M10.0163 12.1094H8.70376V13.6719H10.0163V12.1094Z" fill="#976947"/>
<path d="M12.6413 12.1094H11.3288V13.6719H12.6413V12.1094Z" fill="#976947"/>
<path d="M4.76626 15.2344H3.45376V16.7969H4.76626V15.2344Z" fill="#976947"/>
<path d="M7.39126 15.2344H6.07876V16.7969H7.39126V15.2344Z" fill="#976947"/>
<path d="M10.0163 15.2344H8.70376V16.7969H10.0163V15.2344Z" fill="#976947"/>
<path d="M12.6413 15.2344H11.3288V16.7969H12.6413V15.2344Z" fill="#976947"/>
<path d="M15.2663 12.1094H13.9538V13.6719H15.2663V12.1094Z" fill="#976947"/>
</g>
<defs>
<clipPath id="clip0">
<rect width="16.8" height="20" fill="white" transform="translate(0.960007)"/>
</clipPath>
</defs>
</svg>
