<svg width="20" height="16" viewBox="0 0 20 16" fill="none" xmlns="http://www.w3.org/2000/svg">
<path d="M17.5585 0.389893H2.44569C1.09663 0.389893 0 1.48652 0 2.83558V13.1646C0 14.5136 1.09663 15.6103 2.44569 15.6103H17.5543C18.9034 15.6103 20 14.5136 20 13.1646V2.83972C20.0041 1.49066 18.9075 0.389893 17.5585 0.389893ZM18.8868 13.1646C18.8868 13.897 18.2909 14.4929 17.5585 14.4929H2.44569C1.71322 14.4929 1.11732 13.897 1.11732 13.1646V2.83972C1.11732 2.10725 1.71322 1.51135 2.44569 1.51135H17.5543C18.2868 1.51135 18.8827 2.10725 18.8827 2.83972V13.1646H18.8868Z" fill="#976947"/>
<path d="M12.6133 7.87194L17.5047 3.48543C17.7323 3.27851 17.753 2.92677 17.546 2.69503C17.3391 2.46742 16.9874 2.44673 16.7556 2.65364L10.0104 8.70785L8.6944 7.5326C8.69026 7.52846 8.68612 7.52433 8.68612 7.52019C8.65715 7.49122 8.62819 7.46639 8.59508 7.44156L3.24023 2.64951C3.00849 2.4426 2.65674 2.46329 2.44983 2.69503C2.24292 2.92677 2.26361 3.27851 2.49535 3.48543L7.44466 7.90918L2.51604 12.5233C2.29258 12.7343 2.28016 13.0861 2.49121 13.3137C2.60294 13.4296 2.75192 13.4916 2.90089 13.4916C3.03746 13.4916 3.17402 13.442 3.28161 13.3427L8.28471 8.66233L9.64205 9.87483C9.74964 9.97001 9.88207 10.0155 10.0145 10.0155C10.1469 10.0155 10.2835 9.96587 10.3869 9.87069L11.7815 8.62095L16.7556 13.3468C16.8632 13.4503 17.0039 13.4999 17.1405 13.4999C17.2895 13.4999 17.4343 13.442 17.546 13.3261C17.7571 13.1026 17.7488 12.7468 17.5254 12.5357L12.6133 7.87194Z" fill="#976947"/>
</svg>
