<svg width="42" height="42" viewBox="0 0 42 42" fill="none" xmlns="http://www.w3.org/2000/svg">
<circle cx="21" cy="21" r="20.5" stroke="white"/>
<g clip-path="url(#clip0)">
<path d="M31.5 14.7232C30.179 14.784 30.2078 14.7791 30.0585 14.7916L30.8409 12.5573C30.8409 12.5573 28.3988 13.4557 27.7798 13.6164C26.1539 12.155 23.7372 12.0905 22.0094 13.1524C20.5945 14.0222 19.8351 15.5159 20.0884 17.2618C17.3347 16.8797 15.0146 15.5744 13.1828 13.374L12.6035 12.6781L12.1706 13.4731C11.6234 14.4777 11.4418 15.6263 11.6589 16.7073C11.7479 17.1508 11.8993 17.5737 12.1091 17.9698L11.6121 17.7772L11.5531 18.6076C11.4933 19.4512 11.7742 20.4359 12.3045 21.2414C12.4538 21.4683 12.6461 21.7174 12.8898 21.9632L12.633 21.9238L12.9464 22.8753C13.3583 24.1255 14.2138 25.0927 15.3241 25.6304C14.2153 26.101 13.3195 26.4012 11.8471 26.8856L10.5 27.3284L11.7442 28.0087C12.2187 28.2681 13.895 29.1344 15.5513 29.3942C19.2331 29.9717 23.3784 29.5014 26.1691 26.9881C28.5196 24.8712 29.2909 21.8599 29.1307 18.7262C29.1065 18.2518 29.2365 17.799 29.4966 17.4515C30.0178 16.7557 31.4968 14.7278 31.5 14.7232ZM28.5127 16.7145C28.0806 17.2914 27.8642 18.0283 27.903 18.789C28.0646 21.9499 27.2046 24.4012 25.3465 26.0745C23.1761 28.0294 19.6752 28.7966 15.7418 28.1796C15.0295 28.068 14.2933 27.8179 13.684 27.5681C14.9185 27.1434 15.8718 26.7648 17.4113 26.0361L19.5604 25.0189L17.1876 24.867C16.051 24.7942 15.1046 24.2434 14.5229 23.3491C14.8318 23.3311 15.1296 23.2812 15.4262 23.1985L17.6893 22.5682L15.4073 22.0094C14.2984 21.7378 13.6664 21.0743 13.3314 20.5655C13.1114 20.2311 12.9677 19.8886 12.8815 19.5728C13.1103 19.6341 13.377 19.6779 13.8072 19.7205L15.9193 19.9294L14.2459 18.624C13.0401 17.6835 12.5569 16.2705 12.9111 14.9122C16.6743 18.8154 21.0928 18.5221 21.5375 18.6252C21.4396 17.6744 21.4371 17.6721 21.4114 17.5816C20.8419 15.5681 22.0901 14.5458 22.6531 14.1997C23.8291 13.477 25.6958 13.368 26.9888 14.5588C27.268 14.8158 27.6457 14.9169 27.9991 14.8291C28.3163 14.7502 28.5767 14.6668 28.8316 14.5759L28.3009 16.0912L28.9783 16.0917C28.8505 16.2632 28.6972 16.4684 28.5127 16.7145Z" fill="white"/>
</g>
<defs>
<clipPath id="clip0">
<rect width="21" height="21" fill="white" transform="translate(10.5 10.5)"/>
</clipPath>
</defs>
</svg>
