<svg width="150" height="150" viewBox="0 0 150 150" fill="none" xmlns="http://www.w3.org/2000/svg">
<circle cx="75" cy="75" r="72.5" stroke="white" stroke-width="5"/>
<g clip-path="url(#clip0)">
<path d="M92.1981 36H57.8018C46.6072 36 37.5 45.1072 37.5 56.3018V90.6987C37.5 101.893 46.6072 111 57.8018 111H92.1987C103.393 111 112.5 101.893 112.5 90.6987V56.3018C112.5 45.1072 103.393 36 92.1981 36V36ZM108.103 90.6987C108.103 99.4682 100.968 106.603 92.1981 106.603H57.8018C49.0316 106.603 41.8968 99.4682 41.8968 90.6987V56.3018C41.8968 47.5316 49.0316 40.3968 57.8018 40.3968H92.1987C100.968 40.3968 108.103 47.5316 108.103 56.3018V90.6987Z" fill="white"/>
<path d="M74.9999 52.9927C63.6921 52.9927 54.4927 62.192 54.4927 73.4999C54.4927 84.8078 63.6921 94.0071 74.9999 94.0071C86.3078 94.0071 95.5071 84.8078 95.5071 73.4999C95.5071 62.192 86.3078 52.9927 74.9999 52.9927ZM74.9999 89.6103C66.1171 89.6103 58.8895 82.3833 58.8895 73.4999C58.8895 64.617 66.1171 57.3895 74.9999 57.3895C83.8834 57.3895 91.1103 64.617 91.1103 73.4999C91.1103 82.3833 83.8834 89.6103 74.9999 89.6103Z" fill="white"/>
<path d="M95.9975 45.7097C92.6558 45.7097 89.9379 48.4283 89.9379 51.7694C89.9379 55.111 92.6558 57.8296 95.9975 57.8296C99.3392 57.8296 102.058 55.111 102.058 51.7694C102.058 48.4277 99.3392 45.7097 95.9975 45.7097ZM95.9975 53.4322C95.0808 53.4322 94.3347 52.686 94.3347 51.7694C94.3347 50.8521 95.0808 50.1065 95.9975 50.1065C96.9147 50.1065 97.6609 50.8521 97.6609 51.7694C97.6609 52.686 96.9147 53.4322 95.9975 53.4322Z" fill="white"/>
</g>
<defs>
<clipPath id="clip0">
<rect width="75" height="75" fill="white" transform="translate(37.5 36)"/>
</clipPath>
</defs>
</svg>
