<svg width="262" height="54" viewBox="0 0 262 54" fill="none" xmlns="http://www.w3.org/2000/svg">
<g clip-path="url(#clip0)">
<path d="M48.6 26.1V30.8628C48.6 32.9085 47.4443 34.7779 45.6148 35.6933L39.6 38.7H14.4L8.38523 35.6924C6.55579 34.7779 5.40002 32.9076 5.40002 30.8628V26.1" fill="#EFBE9A"/>
<path d="M46.8 13.5H48.4515C51.5162 13.5 54 15.9838 54 19.0485C54 20.6684 53.2925 22.2064 52.0625 23.2616L35.1 37.8H18.9L1.93755 23.2607C0.70752 22.2064 0 20.6675 0 19.0485C0 15.9838 2.48379 13.5 5.54853 13.5H7.2" fill="#DB9B7C"/>
<path d="M40.5 8.09998H41.0374C44.7174 8.09998 47.7 11.0825 47.7 14.7625C47.7 16.2756 47.1854 17.7433 46.2401 18.925L33.3 35.1H20.7L7.75985 18.925C6.81459 17.7433 6.29999 16.2756 6.29999 14.7625C6.29999 11.0825 9.28256 8.09998 12.9625 8.09998H13.5" fill="#EFBE9A"/>
<path d="M33.3 3.59998H33.75C37.4779 3.59998 40.5 6.62209 40.5 10.35C40.5 11.2412 40.3238 12.124 39.9806 12.9463L31.5 33.3H22.5L14.0194 12.9463C13.6762 12.124 13.5 11.2412 13.5 10.35C13.5 6.62209 16.5221 3.59998 20.25 3.59998H20.7" fill="#DB9B7C"/>
<path d="M25.2 33.3L20.7 7.2V3.6C20.7 1.61191 22.3119 0 24.3 0H29.7C31.6881 0 33.3 1.61191 33.3 3.6V7.2L28.8 33.3" fill="#EFBE9A"/>
<path d="M35.4142 38.2012C46.2059 39.2616 54 42.3079 54 45.9C54 50.3741 41.912 54 27 54C12.088 54 0 50.3741 0 45.9C0 42.3079 7.79414 39.2616 18.5858 38.2012" fill="#976947"/>
<path d="M36 41.4C36 46.3706 31.9707 50.4 27 50.4C22.0293 50.4 18 46.3706 18 41.4C18 36.4293 22.0293 32.4 27 32.4C31.9707 32.4 36 36.4293 36 41.4Z" fill="#E8EFF4"/>
<path d="M27 54C41.912 54 54 50.3741 54 45.9L48.157 47.4939C45.4645 48.2274 42.6863 48.6 39.8944 48.6C36.1288 48.6 32.3938 47.9224 28.8677 46.6001L25.1314 45.1991C21.6062 43.8776 17.8712 43.2 14.1056 43.2C11.3146 43.2 8.5355 43.5718 5.84297 44.3061L0 45.9C0 50.3741 12.088 54 27 54Z" fill="#C18E59"/>
<path d="M33.3 41.4H31.5C31.5 38.9189 29.4812 36.9 27 36.9V35.1C30.4739 35.1 33.3 37.927 33.3 41.4Z" fill="white"/>
</g>
<path d="M73.05 6.5H79.975C81.7917 6.5 83.4 6.875 84.8 7.625C86.2167 8.375 87.3167 9.41667 88.1 10.75C88.8833 12.0667 89.275 13.5667 89.275 15.25C89.275 16.9333 88.8833 18.4417 88.1 19.775C87.3167 21.0917 86.2167 22.125 84.8 22.875C83.4 23.625 81.7917 24 79.975 24H73.05V6.5ZM79.875 22.85C81.4917 22.85 82.9167 22.5333 84.15 21.9C85.3833 21.25 86.3333 20.35 87 19.2C87.6667 18.05 88 16.7333 88 15.25C88 13.7667 87.6667 12.45 87 11.3C86.3333 10.15 85.3833 9.25833 84.15 8.625C82.9167 7.975 81.4917 7.65 79.875 7.65H74.325V22.85H79.875ZM102.379 24.125C100.663 24.125 99.1126 23.7417 97.7293 22.975C96.346 22.1917 95.2543 21.125 94.4543 19.775C93.671 18.425 93.2793 16.9167 93.2793 15.25C93.2793 13.5833 93.671 12.075 94.4543 10.725C95.2543 9.375 96.346 8.31667 97.7293 7.55C99.1126 6.76667 100.663 6.375 102.379 6.375C104.096 6.375 105.646 6.75833 107.029 7.525C108.413 8.29167 109.496 9.35 110.279 10.7C111.079 12.05 111.479 13.5667 111.479 15.25C111.479 16.9333 111.079 18.45 110.279 19.8C109.496 21.15 108.413 22.2083 107.029 22.975C105.646 23.7417 104.096 24.125 102.379 24.125ZM102.379 22.95C103.846 22.95 105.171 22.6167 106.354 21.95C107.538 21.2833 108.471 20.3667 109.154 19.2C109.838 18.0167 110.179 16.7 110.179 15.25C110.179 13.8 109.838 12.4917 109.154 11.325C108.471 10.1417 107.538 9.21667 106.354 8.55C105.171 7.88333 103.846 7.55 102.379 7.55C100.913 7.55 99.5793 7.88333 98.3793 8.55C97.196 9.21667 96.2626 10.1417 95.5793 11.325C94.896 12.4917 94.5543 13.8 94.5543 15.25C94.5543 16.7 94.896 18.0167 95.5793 19.2C96.2626 20.3667 97.196 21.2833 98.3793 21.95C99.5793 22.6167 100.913 22.95 102.379 22.95ZM123.427 6.5C125.627 6.5 127.352 7.025 128.602 8.075C129.852 9.10833 130.477 10.55 130.477 12.4C130.477 14.2333 129.852 15.675 128.602 16.725C127.352 17.7583 125.627 18.275 123.427 18.275H118.427V24H117.152V6.5H123.427ZM123.427 17.125C125.293 17.125 126.718 16.7167 127.702 15.9C128.685 15.0833 129.177 13.9167 129.177 12.4C129.177 10.8833 128.685 9.71667 127.702 8.9C126.718 8.06667 125.293 7.65 123.427 7.65H118.427V17.125H123.427ZM141.229 15.375L137.304 19.4V24H136.029V6.5H137.304V17.75L148.229 6.5H149.779L142.079 14.45L150.304 24H148.754L141.229 15.375ZM161.588 6.375C163.804 6.375 165.546 7.025 166.813 8.325C168.079 9.625 168.713 11.5083 168.713 13.975V24H167.438V18.6H155.738V24H154.463V13.975C154.463 11.5083 155.096 9.625 156.363 8.325C157.646 7.025 159.388 6.375 161.588 6.375ZM167.438 17.45V13.85C167.438 11.7833 166.921 10.2167 165.888 9.15C164.871 8.08333 163.438 7.55 161.588 7.55C159.738 7.55 158.296 8.08333 157.263 9.15C156.246 10.2167 155.738 11.7833 155.738 13.85V17.45H167.438ZM174.406 16.725H180.831V17.85H174.406V16.725ZM187.478 13.8C187.878 12.85 188.503 12.125 189.353 11.625C190.203 11.1083 191.236 10.85 192.453 10.85V12.075L192.153 12.05C190.703 12.05 189.57 12.5083 188.753 13.425C187.936 14.325 187.528 15.5833 187.528 17.2V24H186.278V10.95H187.478V13.8ZM202.375 22.975C203.225 22.975 204.008 22.825 204.725 22.525C205.458 22.2083 206.067 21.75 206.55 21.15L207.275 21.975C206.708 22.675 206 23.2083 205.15 23.575C204.3 23.925 203.367 24.1 202.35 24.1C201.05 24.1 199.883 23.8167 198.85 23.25C197.833 22.6833 197.033 21.9 196.45 20.9C195.883 19.9 195.6 18.7583 195.6 17.475C195.6 16.1917 195.867 15.05 196.4 14.05C196.95 13.05 197.708 12.2667 198.675 11.7C199.642 11.1333 200.733 10.85 201.95 10.85C203.083 10.85 204.1 11.1167 205 11.65C205.917 12.1667 206.642 12.8917 207.175 13.825C207.725 14.7417 208.025 15.775 208.075 16.925L197.05 19.075C197.367 20.275 198 21.225 198.95 21.925C199.9 22.625 201.042 22.975 202.375 22.975ZM201.95 11.95C200.967 11.95 200.083 12.1833 199.3 12.65C198.517 13.1 197.908 13.7417 197.475 14.575C197.042 15.3917 196.825 16.325 196.825 17.375C196.825 17.5583 196.842 17.8167 196.875 18.15L206.825 16.2C206.708 15.4167 206.433 14.7 206 14.05C205.567 13.4 205 12.8917 204.3 12.525C203.6 12.1417 202.817 11.95 201.95 11.95ZM216.492 24.1C215.442 24.1 214.442 23.9417 213.492 23.625C212.542 23.3083 211.8 22.9083 211.267 22.425L211.842 21.425C212.375 21.875 213.059 22.25 213.892 22.55C214.742 22.85 215.625 23 216.542 23C217.859 23 218.825 22.7833 219.442 22.35C220.075 21.9167 220.392 21.3167 220.392 20.55C220.392 20 220.217 19.5667 219.867 19.25C219.534 18.9333 219.117 18.7 218.617 18.55C218.117 18.4 217.425 18.2417 216.542 18.075C215.509 17.8917 214.675 17.6917 214.042 17.475C213.409 17.2583 212.867 16.9083 212.417 16.425C211.967 15.9417 211.742 15.275 211.742 14.425C211.742 13.3917 212.167 12.5417 213.017 11.875C213.884 11.1917 215.109 10.85 216.692 10.85C217.525 10.85 218.35 10.9667 219.167 11.2C219.984 11.4333 220.65 11.7417 221.167 12.125L220.592 13.125C220.059 12.7417 219.45 12.45 218.767 12.25C218.084 12.05 217.384 11.95 216.667 11.95C215.45 11.95 214.534 12.175 213.917 12.625C213.3 13.075 212.992 13.6667 212.992 14.4C212.992 14.9833 213.167 15.4417 213.517 15.775C213.867 16.0917 214.292 16.3333 214.792 16.5C215.309 16.65 216.025 16.8167 216.942 17C217.959 17.1833 218.775 17.3833 219.392 17.6C220.025 17.8 220.559 18.1333 220.992 18.6C221.425 19.0667 221.642 19.7083 221.642 20.525C221.642 21.6083 221.192 22.475 220.292 23.125C219.392 23.775 218.125 24.1 216.492 24.1ZM231.48 24.1C230.247 24.1 229.13 23.8167 228.13 23.25C227.147 22.6833 226.372 21.9 225.805 20.9C225.239 19.8833 224.955 18.7417 224.955 17.475C224.955 16.2083 225.239 15.075 225.805 14.075C226.372 13.0583 227.147 12.2667 228.13 11.7C229.13 11.1333 230.247 10.85 231.48 10.85C232.714 10.85 233.822 11.1333 234.805 11.7C235.805 12.2667 236.589 13.0583 237.155 14.075C237.722 15.075 238.005 16.2083 238.005 17.475C238.005 18.7417 237.722 19.8833 237.155 20.9C236.589 21.9 235.805 22.6833 234.805 23.25C233.822 23.8167 232.714 24.1 231.48 24.1ZM231.48 22.975C232.48 22.975 233.372 22.7417 234.155 22.275C234.955 21.8083 235.58 21.1583 236.03 20.325C236.497 19.4917 236.73 18.5417 236.73 17.475C236.73 16.4083 236.497 15.4583 236.03 14.625C235.58 13.7917 234.955 13.1417 234.155 12.675C233.372 12.2083 232.48 11.975 231.48 11.975C230.48 11.975 229.58 12.2083 228.78 12.675C227.997 13.1417 227.372 13.7917 226.905 14.625C226.455 15.4583 226.23 16.4083 226.23 17.475C226.23 18.5417 226.455 19.4917 226.905 20.325C227.372 21.1583 227.997 21.8083 228.78 22.275C229.58 22.7417 230.48 22.975 231.48 22.975ZM244.333 13.8C244.733 12.85 245.358 12.125 246.208 11.625C247.058 11.1083 248.092 10.85 249.308 10.85V12.075L249.008 12.05C247.558 12.05 246.425 12.5083 245.608 13.425C244.792 14.325 244.383 15.5833 244.383 17.2V24H243.133V10.95H244.333V13.8ZM260.078 23.175C259.761 23.475 259.361 23.7083 258.878 23.875C258.411 24.025 257.919 24.1 257.403 24.1C256.269 24.1 255.394 23.7917 254.778 23.175C254.161 22.5417 253.853 21.6667 253.853 20.55V8.1H255.103V10.95H259.253V12.025H255.103V20.425C255.103 21.275 255.303 21.925 255.703 22.375C256.119 22.8083 256.728 23.025 257.528 23.025C258.344 23.025 259.019 22.7833 259.553 22.3L260.078 23.175Z" fill="white"/>
<path d="M72.772 41.656C73.06 40.972 73.51 40.45 74.122 40.09C74.734 39.718 75.478 39.532 76.354 39.532V40.414L76.138 40.396C75.094 40.396 74.278 40.726 73.69 41.386C73.102 42.034 72.808 42.94 72.808 44.104V49H71.908V39.604H72.772V41.656ZM88.8439 44.518H80.7619C80.7859 45.25 80.9719 45.904 81.3199 46.48C81.6679 47.044 82.1359 47.482 82.7239 47.794C83.3239 48.106 83.9959 48.262 84.7399 48.262C85.3519 48.262 85.9159 48.154 86.4319 47.938C86.9599 47.71 87.3979 47.38 87.7459 46.948L88.2679 47.542C87.8599 48.034 87.3439 48.412 86.7199 48.676C86.1079 48.94 85.4419 49.072 84.7219 49.072C83.7859 49.072 82.9519 48.868 82.2199 48.46C81.4879 48.052 80.9119 47.488 80.4919 46.768C80.0839 46.048 79.8799 45.226 79.8799 44.302C79.8799 43.39 80.0719 42.574 80.4559 41.854C80.8519 41.122 81.3919 40.552 82.0759 40.144C82.7599 39.736 83.5279 39.532 84.3799 39.532C85.2319 39.532 85.9939 39.736 86.6659 40.144C87.3499 40.54 87.8839 41.098 88.2679 41.818C88.6639 42.538 88.8619 43.354 88.8619 44.266L88.8439 44.518ZM84.3799 40.324C83.7199 40.324 83.1259 40.474 82.5979 40.774C82.0699 41.062 81.6439 41.476 81.3199 42.016C81.0079 42.544 80.8279 43.144 80.7799 43.816H87.9799C87.9439 43.144 87.7639 42.544 87.4399 42.016C87.1159 41.488 86.6899 41.074 86.1619 40.774C85.6339 40.474 85.0399 40.324 84.3799 40.324ZM96.1821 49.072C95.4261 49.072 94.7061 48.958 94.0221 48.73C93.3381 48.502 92.8041 48.214 92.4201 47.866L92.8341 47.146C93.2181 47.47 93.7101 47.74 94.3101 47.956C94.9221 48.172 95.5581 48.28 96.2181 48.28C97.1661 48.28 97.8621 48.124 98.3061 47.812C98.7621 47.5 98.9901 47.068 98.9901 46.516C98.9901 46.12 98.8641 45.808 98.6121 45.58C98.3721 45.352 98.0721 45.184 97.7121 45.076C97.3521 44.968 96.8541 44.854 96.2181 44.734C95.4741 44.602 94.8741 44.458 94.4181 44.302C93.9621 44.146 93.5721 43.894 93.2481 43.546C92.9241 43.198 92.7621 42.718 92.7621 42.106C92.7621 41.362 93.0681 40.75 93.6801 40.27C94.3041 39.778 95.1861 39.532 96.3261 39.532C96.9261 39.532 97.5201 39.616 98.1081 39.784C98.6961 39.952 99.1761 40.174 99.5481 40.45L99.1341 41.17C98.7501 40.894 98.3121 40.684 97.8201 40.54C97.3281 40.396 96.8241 40.324 96.3081 40.324C95.4321 40.324 94.7721 40.486 94.3281 40.81C93.8841 41.134 93.6621 41.56 93.6621 42.088C93.6621 42.508 93.7881 42.838 94.0401 43.078C94.2921 43.306 94.5981 43.48 94.9581 43.6C95.3301 43.708 95.8461 43.828 96.5061 43.96C97.2381 44.092 97.8261 44.236 98.2701 44.392C98.7261 44.536 99.1101 44.776 99.4221 45.112C99.7341 45.448 99.8901 45.91 99.8901 46.498C99.8901 47.278 99.5661 47.902 98.9181 48.37C98.2701 48.838 97.3581 49.072 96.1821 49.072ZM108.234 49.072C107.346 49.072 106.542 48.868 105.822 48.46C105.114 48.052 104.556 47.488 104.148 46.768C103.74 46.036 103.536 45.214 103.536 44.302C103.536 43.39 103.74 42.574 104.148 41.854C104.556 41.122 105.114 40.552 105.822 40.144C106.542 39.736 107.346 39.532 108.234 39.532C109.122 39.532 109.92 39.736 110.628 40.144C111.348 40.552 111.912 41.122 112.32 41.854C112.728 42.574 112.932 43.39 112.932 44.302C112.932 45.214 112.728 46.036 112.32 46.768C111.912 47.488 111.348 48.052 110.628 48.46C109.92 48.868 109.122 49.072 108.234 49.072ZM108.234 48.262C108.954 48.262 109.596 48.094 110.16 47.758C110.736 47.422 111.186 46.954 111.51 46.354C111.846 45.754 112.014 45.07 112.014 44.302C112.014 43.534 111.846 42.85 111.51 42.25C111.186 41.65 110.736 41.182 110.16 40.846C109.596 40.51 108.954 40.342 108.234 40.342C107.514 40.342 106.866 40.51 106.29 40.846C105.726 41.182 105.276 41.65 104.94 42.25C104.616 42.85 104.454 43.534 104.454 44.302C104.454 45.07 104.616 45.754 104.94 46.354C105.276 46.954 105.726 47.422 106.29 47.758C106.866 48.094 107.514 48.262 108.234 48.262ZM118.748 41.656C119.036 40.972 119.486 40.45 120.098 40.09C120.71 39.718 121.454 39.532 122.33 39.532V40.414L122.114 40.396C121.07 40.396 120.254 40.726 119.666 41.386C119.078 42.034 118.784 42.94 118.784 44.104V49H117.884V39.604H118.748V41.656ZM132.054 48.406C131.826 48.622 131.538 48.79 131.19 48.91C130.854 49.018 130.5 49.072 130.128 49.072C129.312 49.072 128.682 48.85 128.238 48.406C127.794 47.95 127.572 47.32 127.572 46.516V40.378H125.844V39.604H127.572V37.552H128.472V39.604H131.46V40.378H128.472V46.426C128.472 47.038 128.616 47.506 128.904 47.83C129.204 48.142 129.642 48.298 130.218 48.298C130.806 48.298 131.292 48.124 131.676 47.776L132.054 48.406ZM148.097 39.532C149.273 39.532 150.203 39.874 150.887 40.558C151.571 41.242 151.913 42.226 151.913 43.51V49H151.013V43.582C151.013 42.526 150.743 41.722 150.203 41.17C149.675 40.618 148.931 40.342 147.971 40.342C146.867 40.342 145.997 40.672 145.361 41.332C144.725 41.992 144.407 42.88 144.407 43.996V49H143.507V35.644H144.407V41.566C144.731 40.918 145.211 40.42 145.847 40.072C146.483 39.712 147.233 39.532 148.097 39.532ZM161.467 49.072C160.579 49.072 159.775 48.868 159.055 48.46C158.347 48.052 157.789 47.488 157.381 46.768C156.973 46.036 156.769 45.214 156.769 44.302C156.769 43.39 156.973 42.574 157.381 41.854C157.789 41.122 158.347 40.552 159.055 40.144C159.775 39.736 160.579 39.532 161.467 39.532C162.355 39.532 163.153 39.736 163.861 40.144C164.581 40.552 165.145 41.122 165.553 41.854C165.961 42.574 166.165 43.39 166.165 44.302C166.165 45.214 165.961 46.036 165.553 46.768C165.145 47.488 164.581 48.052 163.861 48.46C163.153 48.868 162.355 49.072 161.467 49.072ZM161.467 48.262C162.187 48.262 162.829 48.094 163.393 47.758C163.969 47.422 164.419 46.954 164.743 46.354C165.079 45.754 165.247 45.07 165.247 44.302C165.247 43.534 165.079 42.85 164.743 42.25C164.419 41.65 163.969 41.182 163.393 40.846C162.829 40.51 162.187 40.342 161.467 40.342C160.747 40.342 160.099 40.51 159.523 40.846C158.959 41.182 158.509 41.65 158.173 42.25C157.849 42.85 157.687 43.534 157.687 44.302C157.687 45.07 157.849 45.754 158.173 46.354C158.509 46.954 158.959 47.422 159.523 47.758C160.099 48.094 160.747 48.262 161.467 48.262ZM175.78 48.406C175.552 48.622 175.264 48.79 174.916 48.91C174.58 49.018 174.226 49.072 173.854 49.072C173.038 49.072 172.408 48.85 171.964 48.406C171.52 47.95 171.298 47.32 171.298 46.516V40.378H169.57V39.604H171.298V37.552H172.198V39.604H175.186V40.378H172.198V46.426C172.198 47.038 172.342 47.506 172.63 47.83C172.93 48.142 173.368 48.298 173.944 48.298C174.532 48.298 175.018 48.124 175.402 47.776L175.78 48.406ZM188.053 44.518H179.971C179.995 45.25 180.181 45.904 180.529 46.48C180.877 47.044 181.345 47.482 181.933 47.794C182.533 48.106 183.205 48.262 183.949 48.262C184.561 48.262 185.125 48.154 185.641 47.938C186.169 47.71 186.607 47.38 186.955 46.948L187.477 47.542C187.069 48.034 186.553 48.412 185.929 48.676C185.317 48.94 184.651 49.072 183.931 49.072C182.995 49.072 182.161 48.868 181.429 48.46C180.697 48.052 180.121 47.488 179.701 46.768C179.293 46.048 179.089 45.226 179.089 44.302C179.089 43.39 179.281 42.574 179.665 41.854C180.061 41.122 180.601 40.552 181.285 40.144C181.969 39.736 182.737 39.532 183.589 39.532C184.441 39.532 185.203 39.736 185.875 40.144C186.559 40.54 187.093 41.098 187.477 41.818C187.873 42.538 188.071 43.354 188.071 44.266L188.053 44.518ZM183.589 40.324C182.929 40.324 182.335 40.474 181.807 40.774C181.279 41.062 180.853 41.476 180.529 42.016C180.217 42.544 180.037 43.144 179.989 43.816H187.189C187.153 43.144 186.973 42.544 186.649 42.016C186.325 41.488 185.899 41.074 185.371 40.774C184.843 40.474 184.249 40.324 183.589 40.324ZM193.016 35.644H193.916V49H193.016V35.644ZM215.796 49.18L213.978 47.272C213.462 47.872 212.85 48.328 212.142 48.64C211.434 48.94 210.648 49.09 209.784 49.09C208.992 49.09 208.284 48.958 207.66 48.694C207.036 48.43 206.55 48.058 206.202 47.578C205.854 47.098 205.68 46.552 205.68 45.94C205.68 45.208 205.926 44.542 206.418 43.942C206.91 43.33 207.75 42.676 208.938 41.98L208.92 41.944C208.296 41.296 207.87 40.756 207.642 40.324C207.414 39.88 207.3 39.406 207.3 38.902C207.3 38.122 207.57 37.498 208.11 37.03C208.65 36.562 209.376 36.328 210.288 36.328C211.14 36.328 211.812 36.544 212.304 36.976C212.808 37.396 213.06 37.978 213.06 38.722C213.06 39.346 212.844 39.91 212.412 40.414C211.992 40.906 211.248 41.464 210.18 42.088L213.906 46.03C214.314 45.31 214.614 44.458 214.806 43.474L215.544 43.708C215.304 44.872 214.944 45.838 214.464 46.606L216.336 48.586L215.796 49.18ZM208.146 38.902C208.146 39.298 208.248 39.682 208.452 40.054C208.656 40.414 209.058 40.912 209.658 41.548C210.654 40.972 211.338 40.486 211.71 40.09C212.082 39.682 212.268 39.232 212.268 38.74C212.268 38.212 212.094 37.798 211.746 37.498C211.398 37.186 210.912 37.03 210.288 37.03C209.616 37.03 209.088 37.204 208.704 37.552C208.332 37.888 208.146 38.338 208.146 38.902ZM209.82 48.334C211.356 48.334 212.562 47.788 213.438 46.696L209.46 42.502C208.356 43.15 207.594 43.72 207.174 44.212C206.766 44.704 206.562 45.256 206.562 45.868C206.562 46.6 206.862 47.194 207.462 47.65C208.074 48.106 208.86 48.334 209.82 48.334ZM229.766 49.072C229.01 49.072 228.29 48.958 227.606 48.73C226.922 48.502 226.388 48.214 226.004 47.866L226.418 47.146C226.802 47.47 227.294 47.74 227.894 47.956C228.506 48.172 229.142 48.28 229.802 48.28C230.75 48.28 231.446 48.124 231.89 47.812C232.346 47.5 232.574 47.068 232.574 46.516C232.574 46.12 232.448 45.808 232.196 45.58C231.956 45.352 231.656 45.184 231.296 45.076C230.936 44.968 230.438 44.854 229.802 44.734C229.058 44.602 228.458 44.458 228.002 44.302C227.546 44.146 227.156 43.894 226.832 43.546C226.508 43.198 226.346 42.718 226.346 42.106C226.346 41.362 226.652 40.75 227.264 40.27C227.888 39.778 228.77 39.532 229.91 39.532C230.51 39.532 231.104 39.616 231.692 39.784C232.28 39.952 232.76 40.174 233.132 40.45L232.718 41.17C232.334 40.894 231.896 40.684 231.404 40.54C230.912 40.396 230.408 40.324 229.892 40.324C229.016 40.324 228.356 40.486 227.912 40.81C227.468 41.134 227.246 41.56 227.246 42.088C227.246 42.508 227.372 42.838 227.624 43.078C227.876 43.306 228.182 43.48 228.542 43.6C228.914 43.708 229.43 43.828 230.09 43.96C230.822 44.092 231.41 44.236 231.854 44.392C232.31 44.536 232.694 44.776 233.006 45.112C233.318 45.448 233.474 45.91 233.474 46.498C233.474 47.278 233.15 47.902 232.502 48.37C231.854 48.838 230.942 49.072 229.766 49.072ZM242.862 39.532C243.738 39.532 244.53 39.736 245.238 40.144C245.946 40.552 246.498 41.116 246.894 41.836C247.302 42.556 247.506 43.378 247.506 44.302C247.506 45.226 247.302 46.054 246.894 46.786C246.498 47.506 245.946 48.07 245.238 48.478C244.53 48.874 243.738 49.072 242.862 49.072C242.034 49.072 241.284 48.88 240.612 48.496C239.94 48.1 239.418 47.554 239.046 46.858V52.492H238.146V39.604H239.01V41.818C239.382 41.098 239.904 40.54 240.576 40.144C241.26 39.736 242.022 39.532 242.862 39.532ZM242.808 48.262C243.528 48.262 244.176 48.094 244.752 47.758C245.328 47.422 245.778 46.954 246.102 46.354C246.438 45.754 246.606 45.07 246.606 44.302C246.606 43.534 246.438 42.85 246.102 42.25C245.778 41.65 245.328 41.182 244.752 40.846C244.176 40.51 243.528 40.342 242.808 40.342C242.088 40.342 241.44 40.51 240.864 40.846C240.3 41.182 239.85 41.65 239.514 42.25C239.19 42.85 239.028 43.534 239.028 44.302C239.028 45.07 239.19 45.754 239.514 46.354C239.85 46.954 240.3 47.422 240.864 47.758C241.44 48.094 242.088 48.262 242.808 48.262ZM255.585 39.532C256.749 39.532 257.643 39.832 258.267 40.432C258.891 41.02 259.203 41.89 259.203 43.042V49H258.339V47.326C258.039 47.878 257.601 48.31 257.025 48.622C256.449 48.922 255.759 49.072 254.955 49.072C253.911 49.072 253.083 48.826 252.471 48.334C251.871 47.842 251.571 47.194 251.571 46.39C251.571 45.61 251.847 44.98 252.399 44.5C252.963 44.008 253.857 43.762 255.081 43.762H258.303V43.006C258.303 42.13 258.063 41.464 257.583 41.008C257.115 40.552 256.425 40.324 255.513 40.324C254.889 40.324 254.289 40.432 253.713 40.648C253.149 40.864 252.669 41.152 252.273 41.512L251.823 40.864C252.291 40.444 252.855 40.12 253.515 39.892C254.175 39.652 254.865 39.532 255.585 39.532ZM255.081 48.334C255.861 48.334 256.521 48.154 257.061 47.794C257.613 47.434 258.027 46.912 258.303 46.228V44.464H255.099C254.175 44.464 253.503 44.632 253.083 44.968C252.675 45.304 252.471 45.766 252.471 46.354C252.471 46.966 252.699 47.452 253.155 47.812C253.611 48.16 254.253 48.334 255.081 48.334Z" fill="white"/>
<defs>
<clipPath id="clip0">
<rect width="54" height="54" fill="white"/>
</clipPath>
</defs>
</svg>
