<svg width="35" height="35" viewBox="0 0 35 35" fill="none" xmlns="http://www.w3.org/2000/svg">
<path d="M33.5417 18.9281H1.45833C0.653331 18.9281 0 18.2748 0 17.4698C0 16.6648 0.653331 16.0115 1.45833 16.0115H33.5417C34.3467 16.0115 35 16.6648 35 17.4698C35 18.2748 34.3467 18.9281 33.5417 18.9281Z" fill="#EFBE9A"/>
<path d="M33.5417 7.74748H1.45833C0.653331 7.74748 0 7.09415 0 6.28914C0 5.48414 0.653331 4.83081 1.45833 4.83081H33.5417C34.3467 4.83081 35 5.48414 35 6.28914C35 7.09415 34.3467 7.74748 33.5417 7.74748Z" fill="#EFBE9A"/>
<path d="M33.5417 30.1083H1.45833C0.653331 30.1083 0 29.455 0 28.65C0 27.845 0.653331 27.1917 1.45833 27.1917H33.5417C34.3467 27.1917 35 27.845 35 28.65C35 29.455 34.3467 30.1083 33.5417 30.1083Z" fill="#EFBE9A"/>
</svg>
