<svg width="20" height="20" viewBox="0 0 20 20" fill="none" xmlns="http://www.w3.org/2000/svg">
<path d="M9.99583 0C5.57655 0 1.97906 3.59748 1.97906 8.01677C1.97906 8.51992 2.02519 9.02725 2.12162 9.52201C2.12582 9.55136 2.14259 9.63941 2.17613 9.79036C2.29772 10.3312 2.47802 10.8637 2.71282 11.3711C3.57655 13.4046 5.47592 16.5283 9.64363 19.8742C9.74845 19.9581 9.87424 20 10 20C10.1258 20 10.2516 19.9581 10.3564 19.8742C14.5199 16.5283 16.4235 13.4046 17.2872 11.3711C17.522 10.8637 17.7023 10.3354 17.8239 9.79036C17.8575 9.63941 17.8742 9.55136 17.8784 9.52201C17.9707 9.02725 18.021 8.51992 18.021 8.01677C18.0126 3.59748 14.4151 0 9.99583 0ZM16.7547 9.32495C16.7547 9.33333 16.7505 9.34172 16.7505 9.3501C16.7464 9.37107 16.7338 9.43396 16.7128 9.5304C16.7128 9.53459 16.7128 9.53459 16.7128 9.53878C16.608 10.0084 16.4528 10.4654 16.2474 10.9057C16.2432 10.9099 16.2432 10.9182 16.239 10.9224C15.4549 12.7799 13.7359 15.6143 9.99583 18.7044C6.25579 15.6143 4.53672 12.7799 3.75265 10.9224C3.74846 10.9182 3.74846 10.9099 3.74426 10.9057C3.54301 10.4696 3.38787 10.0084 3.27885 9.53878C3.27885 9.53459 3.27885 9.53459 3.27885 9.5304C3.2537 9.43396 3.24531 9.37107 3.24112 9.3501C3.24112 9.34172 3.23693 9.33333 3.23693 9.32075C3.15307 8.88889 3.11114 8.45283 3.11114 8.01258C3.11114 4.21803 6.20128 1.12788 9.99583 1.12788C13.7904 1.12788 16.8805 4.21803 16.8805 8.01258C16.8805 8.45702 16.8386 8.89727 16.7547 9.32495Z" fill="white"/>
<path d="M9.99585 3.01465C7.19082 3.01465 4.9057 5.29976 4.9057 8.10479C4.9057 10.9098 7.19082 13.1949 9.99585 13.1949C12.8009 13.1949 15.086 10.9098 15.086 8.10479C15.086 5.29976 12.8009 3.01465 9.99585 3.01465ZM9.99585 12.0629C7.81136 12.0629 6.03778 10.2851 6.03778 8.10479C6.03778 5.9245 7.81555 4.14672 9.99585 4.14672C12.1761 4.14672 13.9539 5.9245 13.9539 8.10479C13.9539 10.2851 12.1803 12.0629 9.99585 12.0629Z" fill="white"/>
</svg>
