<svg width="150" height="150" viewBox="0 0 150 150" fill="none" xmlns="http://www.w3.org/2000/svg">
<circle cx="75" cy="75" r="72.5" stroke="white" stroke-width="5"/>
<g clip-path="url(#clip0)">
<path d="M110.592 44.9501C109.676 43.8297 108.304 43.2129 106.728 43.2129C105.871 43.2129 104.964 43.3931 104.031 43.7496L40.5449 67.9842C37.1757 69.2699 36.722 71.1994 36.7511 72.2351C36.7803 73.2708 37.3428 75.1717 40.7795 76.2651C40.8001 76.2714 40.8207 76.2777 40.8413 76.2835L54.01 80.052L61.1316 100.417C62.1027 103.193 64.2822 104.918 66.8205 104.918C68.421 104.918 69.9951 104.247 71.373 102.979L79.5183 95.4792L91.3326 104.992C91.3337 104.993 91.3355 104.994 91.3366 104.995L91.4488 105.085C91.4591 105.093 91.4699 105.102 91.4802 105.11C92.7934 106.129 94.2268 106.666 95.627 106.667H95.6276C98.3633 106.667 100.542 104.642 101.176 101.509L111.578 50.1451C111.996 48.0835 111.646 46.2387 110.592 44.9501ZM58.4154 79.3362L83.8218 66.3568L68.0021 83.1665C67.7429 83.4417 67.5592 83.7788 67.4688 84.1455L64.4184 96.5017L58.4154 79.3362ZM68.3958 99.7461C68.2905 99.8428 68.1846 99.9292 68.0788 100.009L70.9089 88.5464L76.057 92.692L68.3958 99.7461ZM107.271 49.2725L96.8693 100.636C96.7691 101.128 96.4493 102.272 95.627 102.272C95.2207 102.272 94.7103 102.05 94.1879 101.648L80.8006 90.8689C80.7989 90.8672 80.7966 90.8655 80.7943 90.8644L72.8286 84.45L95.706 60.141C96.4384 59.3628 96.5048 58.1709 95.8633 57.316C95.2213 56.4611 94.058 56.1922 93.1064 56.6786L55.4794 75.9012L42.1316 72.0823L105.598 47.8552C106.134 47.6503 106.509 47.6074 106.728 47.6074C106.862 47.6074 107.101 47.6234 107.19 47.7327C107.307 47.8752 107.456 48.361 107.271 49.2725Z" fill="white"/>
</g>
<defs>
<clipPath id="clip0">
<rect width="75" height="75" fill="white" transform="translate(36.75 37.5)"/>
</clipPath>
</defs>
</svg>
