<svg width="150" height="150" viewBox="0 0 150 150" fill="none" xmlns="http://www.w3.org/2000/svg">
<circle cx="75" cy="75" r="72.5" stroke="white" stroke-width="5"/>
<g clip-path="url(#clip0)">
<path d="M112.5 52.5827C107.782 52.8001 107.885 52.7824 107.352 52.827L110.146 44.8476C110.146 44.8476 101.424 48.056 99.2134 48.6299C93.4067 43.4108 84.7755 43.1802 78.6049 46.9728C73.5518 50.0793 70.8395 55.414 71.7442 61.6493C61.9097 60.2846 53.6236 55.6228 47.0816 47.7642L45.0125 45.2791L43.4664 48.1183C41.5123 51.7061 40.8634 55.8082 41.6388 59.6689C41.9569 61.2527 42.4976 62.7633 43.2467 64.1778L41.4717 63.49L41.2611 66.4558C41.0477 69.4684 42.0507 72.9852 43.9447 75.8623C44.478 76.6725 45.1647 77.5623 46.035 78.44L45.1178 78.2993L46.237 81.6976C47.7081 86.1625 50.7637 89.6169 54.7291 91.5372C50.7689 93.2178 47.5697 94.2901 42.3111 96.0199L37.5 97.6014L41.9437 100.031C43.638 100.957 49.625 104.051 55.5405 104.979C68.6897 107.042 83.4944 105.362 93.461 96.3861C101.856 88.8255 104.61 78.071 104.038 66.8792C103.952 65.1849 104.416 63.5679 105.345 62.3268C107.207 59.8417 112.489 52.5993 112.5 52.5827ZM101.831 59.6946C100.288 61.7551 99.515 64.3867 99.6534 67.1035C100.231 78.3925 97.1592 87.1473 90.5233 93.1234C82.7717 100.105 70.2684 102.845 56.2208 100.642C53.6768 100.243 51.0475 99.3495 48.8714 98.4575C53.2803 96.9405 56.6849 95.5884 62.1832 92.986L69.8587 89.3531L61.3844 88.8107C57.3252 88.5509 53.9452 86.5836 51.8675 83.3896C52.9707 83.3255 54.0344 83.147 55.0936 82.8517L63.176 80.6007L55.0261 78.6048C51.0658 77.6349 48.8085 75.2654 47.612 73.4481C46.8264 72.2539 46.3131 71.0306 46.0052 69.9027C46.8224 70.1219 47.7751 70.2781 49.3114 70.4303L56.8548 71.1765L50.8781 66.5141C46.5717 63.1553 44.846 58.109 46.1111 53.2579C59.551 67.1979 75.3313 66.1502 76.9197 66.5187C76.5701 63.1227 76.561 63.1147 76.4694 62.7914C74.4352 55.6005 78.8933 51.9493 80.904 50.7133C85.104 48.1321 91.7707 47.743 96.3884 51.9956C97.3858 52.9134 98.7345 53.2745 99.9968 52.9609C101.13 52.6794 102.06 52.3813 102.97 52.0568L101.075 57.4687L103.494 57.4705C103.037 58.0827 102.49 58.8157 101.831 59.6946Z" fill="white"/>
</g>
<defs>
<clipPath id="clip0">
<rect width="75" height="75" fill="white" transform="translate(37.5 37.5)"/>
</clipPath>
</defs>
</svg>
